<?xml version="1.0"?>
<svg width="40" height="40" xmlns="http://www.w3.org/2000/svg" xmlns:svg="http://www.w3.org/2000/svg" data-name="Layer 1">
 <defs>
  <style>.cls-1{fill:none;stroke:#000000;stroke-miterlimit:20;}.cls-2{fill:none;stroke:#000000;stroke-linecap:round;stroke-miterlimit:20;}.cls-3{fill:#ffffff;stroke:#000000;stroke-miterlimit:20;}</style>
 </defs>
 <g class="layer">
  <title>Layer 1</title>
  <path class="cls-1" d="m40,0l0,40l-40,0l0,-40l40,0z" id="svg_1"/>
  <path class="cls-2" d="m4,6.135714c5.325714,0 5.325714,27.728572 10.662858,27.728572s5.337143,-27.728572 10.662858,-27.728572s5.337143,27.728572 10.674286,27.728572" id="svg_2"/>
  <g id="svg_5">
   <path class="cls-3" d="m27.54,21.015l0,-2.07l-2.54,-0.7a5.28,5.28 0 0 0 -0.25,-0.59l1.28,-2.27l-1.43,-1.47l-2.27,1.28a5.28,5.28 0 0 0 -0.59,-0.25l-0.74,-2.5l-2,0l-0.7,2.51a5.28,5.28 0 0 0 -0.59,0.25l-2.31,-1.29l-1.46,1.47l1.28,2.27a5.28,5.28 0 0 0 -0.25,0.59l-2.51,0.7l0,2.07l2.51,0.7a5.28,5.28 0 0 0 0.25,0.59l-1.28,2.25l1.47,1.47l2.27,-1.28a5.28,5.28 0 0 0 0.59,0.25l0.73,2.56l2,0l0.7,-2.51a5.28,5.28 0 0 0 0.59,-0.25l2.27,1.28l1.5,-1.52l-1.28,-2.27a5.28,5.28 0 0 0 0.25,-0.59l2.51,-0.68z" id="svg_3"/>
   <circle class="cls-3" cx="20" cy="19.975" id="svg_4" r="2.39"/>
  </g>
 </g>
</svg>